<svg id="Layer_1" data-name="Layer 1" xmlns="http://www.w3.org/2000/svg" viewBox="0 0 24 24"><defs><style>.cls-1{fill:#005fff;}</style></defs><path class="cls-1"  d="M4,6a2.982,2.982,0,0,1-2.122-.879L.293,3.536,1.707,2.122,3.293,3.707a1.023,1.023,0,0,0,1.414,0L8.293.122,9.707,1.536,6.121,5.121A2.978,2.978,0,0,1,4,6ZM24,3H12V5H24ZM6.121,13.121,9.707,9.536,8.293,8.122,4.707,11.707a1.023,1.023,0,0,1-1.414,0L1.707,10.122.293,11.536l1.585,1.585a3,3,0,0,0,4.243,0ZM24,11H12v2H24ZM6.121,21.121l3.586-3.585L8.293,16.122,4.707,19.707a1.023,1.023,0,0,1-1.414,0L1.707,18.122.293,19.536l1.585,1.585a3,3,0,0,0,4.243,0ZM24,19H12v2H24Z"/></svg>