<svg id="Layer_1" data-name="Layer 1" xmlns="http://www.w3.org/2000/svg" viewBox="0 0 24 24"><defs><style>.cls-1{fill:#005fff;}</style></defs><path class="cls-1"  d="M13.145.06a11.979,11.979,0,0,1,10.8,10.8A9.336,9.336,0,0,1,13.145.06ZM8.276,15.723A9.278,9.278,0,0,0,.061,13.154,11.978,11.978,0,0,0,10.846,23.939,9.283,9.283,0,0,0,8.276,15.723ZM22.357,13A11.335,11.335,0,0,1,11.133.047,11.936,11.936,0,0,0,.047,11.142a11.249,11.249,0,0,1,12.81,12.811,11.937,11.937,0,0,0,11.1-11.078A11.465,11.465,0,0,1,22.357,13Z"/></svg>