<svg id="Layer_1" data-name="Layer 1" xmlns="http://www.w3.org/2000/svg" viewBox="0 0 24 24"><defs><style>.cls-1{fill:#005fff;}</style></defs><path class="cls-1"  d="M22.535,7.324l1.43-1.4L18.215.051l-1.43,1.4,2.256,2.3L16.862,5.792l-.912-.913a3,3,0,0,0-4.233-.008l3.206,3.206L13.509,9.491,10.3,6.284,8.716,7.87l3.207,3.207-1.414,1.414L7.3,9.284,5.716,10.87l3.207,3.207L7.509,15.491,4.3,12.284,3,13.586v6L.043,22.543l1.414,1.414L4.414,21h6l8.707-8.707a3,3,0,0,0,0-4.243l-.844-.843L20.44,5.184Z"/></svg>