<svg id="Layer_1" data-name="Layer 1" xmlns="http://www.w3.org/2000/svg" viewBox="0 0 24 24"><defs><style>.cls-1{fill:#005fff;}</style></defs><path class="cls-1"  d="M15.761.612A12.027,12.027,0,0,1,23.8,9.893a12.556,12.556,0,0,1-3.828,1.758A20.644,20.644,0,0,0,15.761.612ZM12.977,11.3a10.9,10.9,0,0,0,5.015.7A19.039,19.039,0,0,0,12.681.034C12.454.022,12.23,0,12,0A11.934,11.934,0,0,0,7.312.955,13.637,13.637,0,0,1,12.977,11.3Zm3.957,2.765a12.787,12.787,0,0,1-4.786-.935,12.886,12.886,0,0,0-2.935,3.151,18,18,0,0,0,13.7.681,11.9,11.9,0,0,0,1.082-4.826A14.169,14.169,0,0,1,16.934,14.068ZM16.655,20a18.366,18.366,0,0,1-8.429-1.965,12.434,12.434,0,0,0-1.241,4.854,11.93,11.93,0,0,0,14.406-3.438A21.748,21.748,0,0,1,16.655,20ZM8.64,5.006A11.571,11.571,0,0,0,5.317,2.039,11.992,11.992,0,0,0,.536,15.547,21.312,21.312,0,0,1,8.64,5.006Zm2.328,6.514a11.557,11.557,0,0,0-1.275-4.8A19.156,19.156,0,0,0,1.844,18.2l-.118-.027a12.067,12.067,0,0,0,3.346,3.613A15.707,15.707,0,0,1,10.968,11.52Z"/></svg>