<?xml version="1.0" encoding="iso-8859-1"?>
<!-- Generator: Adobe Illustrator 24.3.0, SVG Export Plug-In . SVG Version: 6.00 Build 0)  -->
<svg version="1.1" id="Layer_1" xmlns="http://www.w3.org/2000/svg" xmlns:xlink="http://www.w3.org/1999/xlink" x="0px" y="0px"
	 viewBox="0 0 24 24" style="enable-background:new 0 0 24 24;" xml:space="preserve">
<path class="cls-1"  d="M18.5,23h-0.033c-0.511-0.008-0.997-0.225-1.345-0.6l-2.168-2.262l1.446-1.382l2.106,2.2l4.081-4.082L24,18.285
	l-4.161,4.162C19.485,22.803,19.002,23.003,18.5,23z"/>
<path class="cls-1"  d="M12.017,0C5.4-0.02,0.02,5.336,0,11.963S5.327,23.98,11.943,24c1.097,0.003,2.19-0.144,3.247-0.439
	c-1.968-2.658-1.411-6.411,1.243-8.382c2.116-1.571,5.009-1.571,7.125,0c1.771-6.367-1.946-12.966-8.302-14.74
	C14.202,0.145,13.112-0.003,12.017,0z M13.017,11.414l-3.293,3.293L8.31,13.293l2.707-2.707V6h2V11.414z"/>
<defs><style>.cls-1{fill:#005fff;}</style></defs>
</svg>
