<svg id="Layer_1" data-name="Layer 1" xmlns="http://www.w3.org/2000/svg" viewBox="0 0 24 24"><defs><style>.cls-1{fill:#005fff;}</style></defs><path class="cls-1"  d="M3.141,7.264l-1.782-.9A12.09,12.09,0,0,1,2.684,4.374L4.2,5.681A10.1,10.1,0,0,0,3.141,7.264ZM2.368,9.146.458,8.552A11.932,11.932,0,0,0,.005,10.9l1.99.2A9.99,9.99,0,0,1,2.368,9.146ZM7.287,3.157,6.344,1.393A12.013,12.013,0,0,0,4.4,2.681L5.641,4.244A10.018,10.018,0,0,1,7.287,3.157Zm3.757-1.111L10.863.055A11.9,11.9,0,0,0,8.547.5l.567,1.917A9.933,9.933,0,0,1,11.044,2.046ZM23.949,12A12,12,0,0,1,0,13H4.023a7.844,7.844,0,0,1-.074-1,7.991,7.991,0,0,1,9-7.936V.051A12.009,12.009,0,0,1,23.949,12Zm-10,0a1.993,1.993,0,0,0-1-1.723V6h-2v4.278a1.991,1.991,0,0,0-.722.722H6.949v2h3.278a1.994,1.994,0,0,0,3.723-1Z"/></svg>