<svg id="Layer_1" data-name="Layer 1" xmlns="http://www.w3.org/2000/svg" viewBox="0 0 24 24"><defs><style>.cls-1{fill:#005fff;}</style></defs><path class="cls-1"  d="M4,8A4,4,0,1,1,8,4,4,4,0,0,1,4,8Zm3.934.52,10.3,10.3a10.822,10.822,0,0,0,2.642-1.944A10.5,10.5,0,0,0,24,9.758a9.412,9.412,0,0,0-2.735-7.019A9.745,9.745,0,0,0,9.4,1.391,5.961,5.961,0,0,1,7.934,8.52ZM6.171,9.586A5.987,5.987,0,0,1,4.027,10a10.617,10.617,0,0,0,1.054,5A.483.483,0,0,1,5,15.578L1.282,18.153A3.363,3.363,0,0,0,0,20.566a2.824,2.824,0,0,0,.853,2.151l.445.422A2.948,2.948,0,0,0,3.381,24a3.2,3.2,0,0,0,2.275-1.08L8.4,19a.5.5,0,0,1,.6-.119,10.441,10.441,0,0,0,7.2.738Z"/></svg>