<svg id="Layer_1" data-name="Layer 1" xmlns="http://www.w3.org/2000/svg" viewBox="0 0 24 24"><defs><style>.cls-1{fill:#005fff;}</style></defs><path class="cls-1"  d="M22.761,11H16V4h1.05a4.007,4.007,0,0,1,3.656,2.375ZM24,15.062V19H0V7A3,3,0,0,1,3,4h7L10.757.97a1.281,1.281,0,0,1,2.486,0L14,4v9h9.627A5.952,5.952,0,0,1,24,15.062ZM10,11H8V9H6v2H4v2H6v2H8V13h2ZM3.058,21A2.424,2.424,0,0,0,3,21.5a2.5,2.5,0,0,0,5,0,2.424,2.424,0,0,0-.058-.5Zm14,0a2.424,2.424,0,0,0-.058.5,2.5,2.5,0,0,0,5,0,2.424,2.424,0,0,0-.058-.5Z"/></svg>