<svg id="Layer_1" data-name="Layer 1" xmlns="http://www.w3.org/2000/svg" viewBox="0 0 24 24"><defs><style>.cls-1{fill:#E86A24;}</style></defs><path class="cls-1"  d="M23.974,2.94A29.725,29.725,0,0,1,21.485,11H14.414l3.543-3.543L16.543,6.043,10,12.586V4.168A30.117,30.117,0,0,1,21.039.027,2.582,2.582,0,0,1,23.974,2.94ZM8,5.533A24.715,24.715,0,0,0,5.256,7.869a7.754,7.754,0,0,0-2.247,5.836,7.636,7.636,0,0,0,1.569,4.3L8,14.586Zm2.586,15.461A8.2,8.2,0,0,0,16.5,18.441,26.623,26.623,0,0,0,20.462,13H12.414L5.991,19.423A7.436,7.436,0,0,0,10.586,20.994ZM4.578,18.008.043,22.543l1.414,1.414,4.534-4.534c-.054-.042-.115-.071-.169-.115A7.947,7.947,0,0,1,4.578,18.008Z"/></svg>