<svg id="Layer_1" data-name="Layer 1" xmlns="http://www.w3.org/2000/svg" viewBox="0 0 24 24"><defs><style>.cls-1{fill:#E86A24;}</style></defs><path class="cls-1"  d="M12,1A11.995,11.995,0,0,0,5.112,22.818L5.371,23H18.629l.259-.182A11.995,11.995,0,0,0,12,1ZM6.06,19.751A8.987,8.987,0,0,1,15.871,4.887L14.345,6.413A6.936,6.936,0,0,0,12,6,6.992,6.992,0,0,0,7.382,18.249ZM12,15a2,2,0,1,1,.512-3.926l4.781-4.781,1.414,1.414-4.781,4.781A1.976,1.976,0,0,1,12,15Zm5.94,4.751-1.322-1.5a6.944,6.944,0,0,0,1.969-7.594l1.526-1.526A8.948,8.948,0,0,1,17.94,19.751Z"/></svg>