<svg id="Layer_1" data-name="Layer 1" xmlns="http://www.w3.org/2000/svg" viewBox="0 0 24 24"><defs><style>.cls-1{fill:#E86A24;}</style></defs><path class="cls-1"  d="M14,7V0H6A3,3,0,0,0,3,3V24H21V7ZM7,10H17v2H7Zm0,4H17v2H7Zm6.135,7a3.154,3.154,0,0,1-1.986-.706c-.314-.223-.424-.294-.662-.294a2.84,2.84,0,0,0-1.786.713l-1.408-1.42A4.763,4.763,0,0,1,10.487,18a2.925,2.925,0,0,1,1.821.664,1.235,1.235,0,0,0,.827.336c.725,0,1.688-1.055,2.041-1.566l1.65,1.13C16.655,18.813,15.106,21,13.135,21ZM16,.219a4,4,0,0,1,1.586.953l2.242,2.242A3.969,3.969,0,0,1,20.785,5H16Z"/></svg>