<svg id="Layer_1" data-name="Layer 1" xmlns="http://www.w3.org/2000/svg" viewBox="0 0 24 24"><defs><style>.cls-1{fill:#E86A24;}</style></defs><path class="cls-1"  d="M16.636,23a1,1,0,1,1,1,1A1,1,0,0,1,16.636,23Zm4.535-3.536a5,5,0,0,0-7.07,0l1.414,1.414a3.074,3.074,0,0,1,4.242,0ZM24,16.636a9.012,9.012,0,0,0-12.729,0l1.415,1.414a7.011,7.011,0,0,1,9.9,0Zm-15.558,0,1.415-1.414A11.014,11.014,0,0,1,24,14.042V14c0-3.741-2.622-5.968-6.21-6.791A8,8,0,0,0,2,9a7.912,7.912,0,0,0,.9,3.671A5.49,5.49,0,0,0,5.5,23h9.177Z"/></svg>