<svg id="Layer_1" data-name="Layer 1" xmlns="http://www.w3.org/2000/svg" viewBox="0 0 24 24"><defs><style>.cls-1{fill:#E86A24;}</style></defs><path class="cls-1"  d="M15.624,19H8.383a10.223,10.223,0,0,1,3.632-4.274A10.058,10.058,0,0,1,15.624,19ZM21,21v3H3V21a12.2,12.2,0,0,1,4.442-9A12.2,12.2,0,0,1,3,3,3,3,0,0,1,6,0H18a3,3,0,0,1,3,3,12.221,12.221,0,0,1-4.425,9A12.221,12.221,0,0,1,21,21Zm-3.09-1.155c-.561-3.566-3.593-6.023-5.349-7.169l-.549-.359-.547.36C9.7,13.833,6.659,16.3,6.092,19.842L5.907,21H18.092Z"/></svg>