<svg id="Layer_1" data-name="Layer 1" xmlns="http://www.w3.org/2000/svg" viewBox="0 0 24 24"><defs><style>.cls-1{fill:#E86A24;}</style></defs><title>96 following</title><circle class="cls-1"  cx="9" cy="6" r="6"/><path class="cls-1"  d="M13.043,14H4.957A4.963,4.963,0,0,0,0,18.957V24H18V18.957A4.963,4.963,0,0,0,13.043,14Z"/><path class="cls-1"  d="M22,7.875a2.107,2.107,0,0,0-2,2.2,2.107,2.107,0,0,0-2-2.2,2.107,2.107,0,0,0-2,2.2c0,2.3,4,5.133,4,5.133s4-2.829,4-5.133A2.107,2.107,0,0,0,22,7.875Z"/></svg>