<svg id="Layer_1" data-name="Layer 1" xmlns="http://www.w3.org/2000/svg" viewBox="0 0 24 24"><defs><style>.cls-1{fill:#E86A24;}</style></defs><title>104 add to shopping cart</title><circle class="cls-1"  cx="7" cy="22" r="2"/><circle class="cls-1"  cx="17" cy="22" r="2"/><path class="cls-1"  d="M22.813,9.583A6,6,0,0,1,12.8,3H4.242L4.2,2.648A3,3,0,0,0,1.222,0H0V2H1.222a1,1,0,0,1,.993.883L3.8,16.351A3,3,0,0,0,6.778,19H20V17H6.778a1,1,0,0,1-.993-.884L5.654,15H21.836Z"/><polygon class="cls-1"  points="21 5 19 5 19 3 17 3 17 5 15 5 15 7 17 7 17 9 19 9 19 7 21 7 21 5"/></svg>