<?xml version="1.0" encoding="iso-8859-1"?>
<!-- Generator: Adobe Illustrator 24.3.0, SVG Export Plug-In . SVG Version: 6.00 Build 0)  -->
<svg version="1.1" id="Layer_1" xmlns="http://www.w3.org/2000/svg" xmlns:xlink="http://www.w3.org/1999/xlink" x="0px" y="0px"
	 viewBox="0 0 24 24" style="enable-background:new 0 0 24 24;" xml:space="preserve">
<polygon class="cls-1"  points="21,19 24,19 24,21 21,21 21,24 19,24 19,21 16,21 16,19 19,19 19,16 21,16 "/>
<path class="cls-1"  d="M12.017,0C5.4-0.02,0.02,5.336,0,11.963S5.327,23.98,11.943,24c1.097,0.003,2.19-0.144,3.247-0.439
	c-1.968-2.658-1.411-6.411,1.243-8.382c2.116-1.571,5.009-1.571,7.125,0c1.771-6.367-1.946-12.966-8.302-14.74
	C14.202,0.145,13.112-0.003,12.017,0z M13.017,11.414l-3.293,3.293L8.31,13.293l2.707-2.707V6h2V11.414z"/>
<defs><style>.cls-1{fill:#E86A24;}</style></defs>
</svg>
