<svg xmlns="http://www.w3.org/2000/svg" viewBox="0 0 24 24"><defs><style>.cls-1{fill:#E86A24;}</style></defs><title>49 keyboard</title><g id="_01_align_center" data-name="01 align center"><path class="cls-1" d="M21,6H13V2H11V6H3A3,3,0,0,0,0,9V20H24V9A3,3,0,0,0,21,6Zm1,12H2V9A1,1,0,0,1,3,8H21a1,1,0,0,1,1,1Z"/><rect class="cls-1" x="8" y="14" width="8" height="2"/><rect class="cls-1" x="9" y="10" width="3" height="2"/><rect class="cls-1" x="14" y="10" width="6" height="2"/><rect class="cls-1" x="4" y="10" width="3" height="2"/><rect class="cls-1" x="4" y="14" width="2" height="2"/><rect class="cls-1" x="18" y="14" width="2" height="2"/></g></svg>