<svg id="Layer_1" data-name="Layer 1" xmlns="http://www.w3.org/2000/svg" viewBox="0 0 24 24"><defs><style>.cls-1{fill:#51B848;}</style></defs><path class="cls-1"  d="M2.363,4.88,3.715,9.255.007,11.868A11.915,11.915,0,0,1,2.363,4.88ZM6.873,19l-4.611-.011a12.027,12.027,0,0,0,6.024,4.416ZM12,3.252,15.676.581a11.92,11.92,0,0,0-7.352,0Zm9.628,1.616L20.272,9.255l3.722,2.622A11.923,11.923,0,0,0,21.628,4.868ZM17.115,19,15.7,23.41a12.034,12.034,0,0,0,6.039-4.425Zm-3.674,4.909A12.038,12.038,0,0,1,12,24a12.034,12.034,0,0,1-1.454-.1L8.333,17,1.1,16.982a11.88,11.88,0,0,1-.89-2.808l5.848-4.121-2.133-6.9A12.025,12.025,0,0,1,6.194,1.506L12,5.724l5.806-4.218a12.032,12.032,0,0,1,2.262,1.637l-2.135,6.91,5.859,4.129a11.923,11.923,0,0,1-.889,2.8L15.655,17ZM8.349,17h7.3l2.256-6.944L12,5.764,6.093,10.056Zm.1-6.181L9.8,15h4.4l1.358-4.181L12,8.236Z"/></svg>