<svg id="Layer_1" data-name="Layer 1" xmlns="http://www.w3.org/2000/svg" viewBox="0 0 24 24"><defs><style>.cls-1{fill:#51B848;}</style></defs><path class="cls-1"  d="M18,12a6,6,0,1,0-6,6A6.006,6.006,0,0,0,18,12Zm-6,4L9,12l3-4,3,4ZM16.391.843a12.054,12.054,0,0,1,6.766,6.766L19.31,8.763A8.048,8.048,0,0,0,15.237,4.69ZM9.522.26a11.939,11.939,0,0,1,4.956,0L13.32,4.118a7.442,7.442,0,0,0-2.64,0Zm10.36,13.06a7.442,7.442,0,0,0,0-2.64L23.74,9.522a11.939,11.939,0,0,1,0,4.956Zm-15.764,0L.26,14.478a11.939,11.939,0,0,1,0-4.956L4.118,10.68a7.442,7.442,0,0,0,0,2.64Zm10.36,10.42a11.939,11.939,0,0,1-4.956,0l1.158-3.858a7.442,7.442,0,0,0,2.64,0Zm8.679-7.349a12.054,12.054,0,0,1-6.766,6.766L15.237,19.31a8.048,8.048,0,0,0,4.073-4.073ZM.844,7.609A12.049,12.049,0,0,1,7.609.843L8.763,4.69A8.042,8.042,0,0,0,4.691,8.763ZM7.609,23.157A12.049,12.049,0,0,1,.844,16.391l3.847-1.154A8.042,8.042,0,0,0,8.763,19.31Z"/></svg>