<svg id="Layer_1" data-name="Layer 1" xmlns="http://www.w3.org/2000/svg" viewBox="0 0 24 24"><defs><style>.cls-1{fill:#51B848;}</style></defs><path class="cls-1"  d="M16,8a7.965,7.965,0,0,0-4.546,1.434c.178.386.376.778.585,1.181A13.58,13.58,0,0,1,14,17a12.788,12.788,0,0,1-1.507,6.2A8,8,0,1,0,16,8Zm1,8a1,1,0,1,1,1-1A1,1,0,0,1,17,16Zm2-3a1,1,0,1,1,1-1A1,1,0,0,1,19,13Zm2,3a1,1,0,1,1,1-1A1,1,0,0,1,21,16ZM10.264,11.537A11.781,11.781,0,0,1,12,17a9.732,9.732,0,0,1-2.293,6.707L9.414,24H2.586l-.293-.293A9.732,9.732,0,0,1,0,17a11.781,11.781,0,0,1,1.736-5.463c.273-.525.536-1.037.753-1.537H9.511C9.728,10.5,9.991,11.012,10.264,11.537ZM2.446,5.825A7.168,7.168,0,0,1,2,4a4,4,0,0,1,8,0,7.168,7.168,0,0,1-.446,1.825A11.618,11.618,0,0,0,9,8H3A11.618,11.618,0,0,0,2.446,5.825Z"/></svg>