<svg id="Layer_1" data-name="Layer 1" xmlns="http://www.w3.org/2000/svg" viewBox="0 0 24 24"><defs><style>.cls-1{fill:#51B848;}</style></defs><path class="cls-1"  d="M19,19h4.414L19,23.414ZM24,3V17H17v7H0V3A3,3,0,0,1,3,0H21A3,3,0,0,1,24,3ZM5.5,9V6.932a.742.742,0,0,1,.749-.751.772.772,0,0,1,.75.75H8.25a2.013,2.013,0,0,0-2-2h0a1.991,1.991,0,0,0-2,1.985v2.1A1.991,1.991,0,0,0,6.25,11h0a2,2,0,0,0,2-1.984V7.931h-2v1H7v.084a.759.759,0,0,1-.75.735A.742.742,0,0,1,5.5,9ZM11.25,4.931H10V11h1.25Zm5.013,0H13v6.025h1.25V8.569h1.864V7.319H14.25V6.181h2.013Z"/></svg>