<svg id="Layer_1" data-name="Layer 1" xmlns="http://www.w3.org/2000/svg" viewBox="0 0 24 24"><defs><style>.cls-1{fill:#51B848;}</style></defs><path class="cls-1"  d="M23.976,17.268l-4.125,6.684-1.7-1.051,4.125-6.684Zm-16.2-15.5L6.729.062-.006,4.184,1.037,5.889ZM20.18,5.234l1.9-1.9L20.668,1.918,18.777,3.809A8.361,8.361,0,0,0,9.07,3.321L2.308,7.07a2.91,2.91,0,0,0-.452,4.485L12.44,22.143A2.889,2.889,0,0,0,14.492,23a3.158,3.158,0,0,0,.375-.023A2.879,2.879,0,0,0,17,21.579l3.928-6.986A8.444,8.444,0,0,0,20.18,5.234ZM3,18.283a4.725,4.725,0,0,0,6.954,4.2l-6.394-6.4A4.712,4.712,0,0,0,3,18.283Z"/></svg>