<svg id="Layer_1" data-name="Layer 1" xmlns="http://www.w3.org/2000/svg" viewBox="0 0 24 24"><defs><style>.cls-1{fill:#51B848;}</style></defs><path class="cls-1"  d="M24,12a11.939,11.939,0,0,1-3.1,8.024,10.229,10.229,0,0,1-3.26-4.487l1.941-.579-.572-1.916L17.14,13.6A10.217,10.217,0,0,1,17,12a10.217,10.217,0,0,1,.14-1.6l1.866.556.572-1.916-1.941-.579A10.229,10.229,0,0,1,20.9,3.976,11.939,11.939,0,0,1,24,12ZM6.363,15.537l-1.941-.579.572-1.916L6.86,13.6A10.217,10.217,0,0,0,7,12a10.217,10.217,0,0,0-.14-1.6l-1.866.556L4.422,9.042l1.941-.579A10.229,10.229,0,0,0,3.1,3.976a11.926,11.926,0,0,0,0,16.048A10.229,10.229,0,0,0,6.363,15.537Zm9.361.571-1.9.565-.572-1.917,1.96-.585A12.225,12.225,0,0,1,15,12a12.225,12.225,0,0,1,.216-2.171l-1.96-.585.572-1.917,1.9.565a12.232,12.232,0,0,1,3.7-5.3,11.933,11.933,0,0,0-14.844,0,12.232,12.232,0,0,1,3.7,5.3l1.9-.565.572,1.917-1.96.585A12.225,12.225,0,0,1,9,12a12.225,12.225,0,0,1-.216,2.171l1.96.585-.572,1.917-1.9-.565a12.232,12.232,0,0,1-3.7,5.3,11.933,11.933,0,0,0,14.844,0A12.232,12.232,0,0,1,15.724,16.108Z"/></svg>