<svg id="Layer_1" data-name="Layer 1" xmlns="http://www.w3.org/2000/svg" viewBox="0 0 24 24"><defs><style>.cls-1{fill:#51B848;}</style></defs><path class="cls-1"  d="M19,19h4.414L19,23.414ZM10.967,6.25h-.715l0,1.473.71,0a.735.735,0,1,0,0-1.47ZM24,3V17H17v7H0V3A3,3,0,0,1,3,0H21A3,3,0,0,1,24,3ZM8,5H6.75V9.068A.742.742,0,0,1,6,9.819a.759.759,0,0,1-.75-.735c0-.03,0-.084,0-.084H4v.084a2,2,0,0,0,2,1.984H6A1.991,1.991,0,0,0,8,9.084Zm4.979,1.985A2,2,0,0,0,10.967,5H9v6.069h1.25v-2.1l.717,0A2,2,0,0,0,12.979,6.985Zm2.272,2.083V7A.742.742,0,0,1,16,6.25a.772.772,0,0,1,.75.75H18a2.013,2.013,0,0,0-2-2h0a1.991,1.991,0,0,0-2,1.985v2.1a1.991,1.991,0,0,0,2,1.985h0a2,2,0,0,0,2-1.984V8H16V9h.749v.084a.759.759,0,0,1-.75.735A.742.742,0,0,1,15.251,9.068Z"/></svg>