<svg id="Layer_1" data-name="Layer 1" xmlns="http://www.w3.org/2000/svg" viewBox="0 0 24 24"><defs><style>.cls-1{fill:#51B848;}</style></defs><title>53 psd file</title><polygon class="cls-1"  points="19 23.414 23.414 19 19 19 19 23.414"/><path class="cls-1"  d="M16.31,6.277h-.7L15.632,9.7c.262,0,.54,0,.7-.007.855-.015,1.237-.866,1.237-1.7C17.573,7.588,17.482,6.277,16.31,6.277Z"/><path class="cls-1"  d="M21,0H3A3,3,0,0,0,0,3V24H17V17h7V3A3,3,0,0,0,21,0ZM5.947,8.97l-.717,0v2.1H3.98V5H5.947a1.985,1.985,0,1,1,0,3.97Zm4.436-2.025c.015,0,.614.263,1.272.506a1.826,1.826,0,0,1,1.408,2.014,2,2,0,0,1-2.04,1.552A2.867,2.867,0,0,1,8.894,10.1l-.42-.463L9.4,8.8l.42.463a1.642,1.642,0,0,0,1.2.5.78.78,0,0,0,.81-.522c.062-.344-.451-.562-.61-.621-.752-.277-1.43-.58-1.43-.58a1.572,1.572,0,0,1-.777-1.579,1.709,1.709,0,0,1,1.239-1.38,2.819,2.819,0,0,1,2.452.536l.479.4-.8.956-.476-.4a1.564,1.564,0,0,0-1.29-.3.457.457,0,0,0-.362.362A.3.3,0,0,0,10.383,6.945Zm5.976,4c-.379.007-1.363.01-1.363.01l-.625,0L14.36,5.868l0-.833h0V5.027H16.31c1.5,0,2.513,1.191,2.513,2.963A2.68,2.68,0,0,1,16.359,10.943Z"/><path class="cls-1"  d="M5.947,6.25H5.232l0,1.473.71,0a.735.735,0,1,0,0-1.47Z"/></svg>