<svg id="Layer_1" data-name="Layer 1" xmlns="http://www.w3.org/2000/svg" viewBox="0 0 24 24"><defs><style>.cls-1{fill:#51B848;}</style></defs><path class="cls-1"  d="M12.949.051V4.064a8,8,0,1,0,0,15.872v4.013a11.99,11.99,0,0,0,0-23.9Zm0,13.672V17h-2V13.723a1.984,1.984,0,0,1,0-3.446V6h2v4.277a1.984,1.984,0,0,1,0,3.446ZM1.359,6.36A12.09,12.09,0,0,1,2.684,4.374L4.2,5.681a10.1,10.1,0,0,0-1.06,1.583ZM2.368,9.146A9.99,9.99,0,0,0,2,11.09l-1.99-.2A11.932,11.932,0,0,1,.458,8.552ZM7.287,3.157A10.018,10.018,0,0,0,5.641,4.244L4.4,2.681A12.013,12.013,0,0,1,6.344,1.393Zm3.757-1.111a9.933,9.933,0,0,0-1.93.368L8.547.5A11.9,11.9,0,0,1,10.863.055Zm-7.9,14.69A10.1,10.1,0,0,0,4.2,18.319L2.684,19.626A12.09,12.09,0,0,1,1.359,17.64ZM.458,15.448a11.932,11.932,0,0,1-.453-2.343L2,12.91a9.99,9.99,0,0,0,.373,1.944Zm5.886,7.159A12.013,12.013,0,0,1,4.4,21.319l1.245-1.563a10.018,10.018,0,0,0,1.646,1.087Zm4.519,1.338A11.9,11.9,0,0,1,8.547,23.5l.567-1.917a9.933,9.933,0,0,0,1.93.368Z"/></svg>