<svg id="Layer_1" data-name="Layer 1" xmlns="http://www.w3.org/2000/svg" viewBox="0 0 24 24"><defs><style>.cls-1{fill:#51B848;}</style></defs><path class="cls-1"  d="M13,22H5.5A5.49,5.49,0,0,1,2.9,11.671,7.912,7.912,0,0,1,2,8,8,8,0,0,1,17.791,6.209,7.981,7.981,0,0,1,21.31,8.031C21.205,8.025,21.106,8,21,8a5.009,5.009,0,0,0-4.92,4.105l-.847.424A4.953,4.953,0,0,0,13,12a5,5,0,0,0,0,10Zm8-6a3,3,0,1,0-3-3,2.9,2.9,0,0,0,.037.363l-2.96,1.481a3,3,0,1,0,0,4.312l2.96,1.481A2.9,2.9,0,0,0,18,21a3.015,3.015,0,1,0,.923-2.156l-2.96-1.481A2.9,2.9,0,0,0,16,17a2.9,2.9,0,0,0-.037-.363l2.96-1.481A2.986,2.986,0,0,0,21,16Z"/></svg>