<svg id="Layer_1" data-name="Layer 1" xmlns="http://www.w3.org/2000/svg" viewBox="0 0 24 24"><defs><style>.cls-1{fill:#51B848;}</style></defs><path class="cls-1"  d="M19.944,2.634,12,0,4.056,2.634A3,3,0,0,0,2,5.482v6.509c0,7.524,9.2,11.679,9.594,11.852l.354.157.368-.122C12.711,23.747,22,20.568,22,11.991V5.482A3,3,0,0,0,19.944,2.634ZM13,19.052H11v-2h2Zm.928-6.495A2.343,2.343,0,0,0,13,14.309v.743H11v-.743a4.309,4.309,0,0,1,1.962-3.5,2,2,0,0,0,1.005-2.125,2.022,2.022,0,0,0-1.6-1.6A2,2,0,0,0,10,9.052H8A4,4,0,0,1,9.429,5.987a4,4,0,1,1,4.5,6.57Z"/></svg>