<svg id="Layer_1" data-name="Layer 1" xmlns="http://www.w3.org/2000/svg" viewBox="0 0 24 24"><defs><style>.cls-1{fill:#51B848;}</style></defs><path class="cls-1"  d="M10.322,23.736a16.126,16.126,0,0,1-2.655.244A8.106,8.106,0,0,1,1.9,22.1C.154,20.349-.318,17.08.256,13.671ZM23.207,12.621a16.314,16.314,0,0,1-3.859,6.727A16.316,16.316,0,0,1,12.614,23.2L.793,11.379A16.314,16.314,0,0,1,4.652,4.652,16.314,16.314,0,0,1,11.379.793Zm-5.5-2.328-4-4L12.293,7.707,13.586,9,12,10.586,10.707,9.293,9.293,10.707,10.586,12,9,13.586,7.707,12.293,6.293,13.707l4,4,1.414-1.414L10.414,15,12,13.414l1.293,1.293,1.414-1.414L13.414,12,15,10.414l1.293,1.293Zm6.037.036c.574-3.409.1-6.678-1.646-8.427S17.08-.319,13.67.256Z"/></svg>