<svg id="Layer_1" data-name="Layer 1" xmlns="http://www.w3.org/2000/svg" viewBox="0 0 24 24"><defs><style>.cls-1{fill:#51B848;}</style></defs><path class="cls-1"  d="M5.523,1.745,4.456.056A15.17,15.17,0,0,0,.017,4.011L1.68,5.12A13.144,13.144,0,0,1,5.523,1.745Z"/><path class="cls-1"  d="M22.32,5.12l1.663-1.109A15.17,15.17,0,0,0,19.544.056L18.477,1.745A13.144,13.144,0,0,1,22.32,5.12Z"/><path class="cls-1"  d="M13,2.051V0H11V2.051A10.977,10.977,0,0,0,3.938,20.459L2.01,22.577l1.48,1.346L5.424,21.8a10.916,10.916,0,0,0,13.152,0l1.934,2.126,1.48-1.346-1.928-2.118A10.977,10.977,0,0,0,13,2.051Zm1.293,13.656L11,12.414V7h2v4.586l2.707,2.707Z"/></svg>