<svg id="Layer_1" data-name="Layer 1" xmlns="http://www.w3.org/2000/svg" viewBox="0 0 24 24"><defs><style>.cls-1{fill:#51B848;}</style></defs><path class="cls-1"  d="M21.835,2.165a7.389,7.389,0,0,0-10.451,0L2.165,11.384A7.39,7.39,0,1,0,12.616,21.835l9.219-9.219a7.389,7.389,0,0,0,0-10.451ZM9.707,19.707,8.293,18.293l.793-.793L6.5,14.914l-.793.793L4.293,14.293l3-3,1.414,1.414-.793.793L10.5,16.086l.793-.793,1.414,1.414Zm7-7-1.414-1.414.793-.793L13.5,7.914l-.793.793L11.293,7.293l3-3,1.414,1.414-.793.793L17.5,9.086l.793-.793,1.414,1.414Z"/></svg>