<?xml version="1.0" encoding="iso-8859-1"?>
<!-- Generator: Adobe Illustrator 19.0.0, SVG Export Plug-In . SVG Version: 6.00 Build 0)  -->
<svg version="1.1" id="Layer_1" xmlns="http://www.w3.org/2000/svg" xmlns:xlink="http://www.w3.org/1999/xlink" x="0px" y="0px"
	 viewBox="0 0 512 512" style="enable-background:new 0 0 512 512;" xml:space="preserve">
<g>
	<g>
		<path d="M316.724,122.327H195.286c-38.148,0-68.198,32.928-64.515,71.047l16.124,166.887
			c2.039,21.095,19.558,37.002,40.751,37.002h136.717c21.194,0,38.712-15.908,40.75-37.003l16.125-166.886
			C384.907,155.403,355.021,122.327,316.724,122.327z M347.264,190.092l-16.125,166.886c-0.339,3.508-3.251,6.153-6.775,6.153
			h-51.292v-56.556l16.289-18.811c9.546-11.023,1.707-28.238-12.901-28.238h-40.911c-14.568,0-22.47,17.189-12.901,28.239
			l16.29,18.809v56.556h-51.292c-3.525,0-6.437-2.645-6.776-6.153l-16.124-166.886c-1.746-18.063,12.408-33.633,30.541-33.633
			h121.437C334.877,156.46,349.008,172.049,347.264,190.092z"/>
	</g>
</g>
<g>
	<g>
		<path d="M256.005,0C76.512,0-39.34,182.866,21.33,330.888c2.898,7.072,10.142,11.341,17.74,10.483
			c19.027-2.202,34.828,12.771,34.828,30.991c0,28.702,0.086,28.12-0.222,30.784c-0.578,4.978,1.062,9.958,4.483,13.619
			c39.926,42.726,88.529,74.186,122.27,93.054c10.05,5.619,22.677-0.139,25.033-11.399c6.92-33.059,54.155-33.108,61.085,0
			c2.368,11.314,15.034,16.99,25.034,11.399c33.74-18.867,82.343-50.326,122.27-93.054c3.421-3.661,5.06-8.64,4.483-13.618
			c-0.312-2.688-0.222-2.231-0.222-30.785c0-18.078,15.641-33.196,34.828-30.991c7.595,0.862,14.841-3.411,17.739-10.482
			C551.295,183.014,435.626,0,256.005,0z M463.083,307.334c-33.893,3.263-59.102,31.741-59.102,65.029
			c0,15.282-0.028,22.026,0.002,26.264c-29.725,30.503-64.156,54.636-92.273,71.637c-24.784-41.061-86.666-40.98-111.408,0.001
			c-28.12-17-62.548-41.132-92.276-71.638c0.031-4.207,0.003-10.985,0.003-26.264c0-33.398-25.324-61.78-59.102-65.029
			C6.962,184.502,104.988,34.133,256.005,34.133C406.203,34.133,505.29,183.802,463.083,307.334z"/>
	</g>
</g>
<g>
	<g>
		<circle cx="214.377" cy="210.519" r="22.577"/>
	</g>
</g>
<g>
	<g>
		<circle cx="298.32" cy="210.519" r="22.577"/>
	</g>
</g>
<g>
</g>
<g>
</g>
<g>
</g>
<g>
</g>
<g>
</g>
<g>
</g>
<g>
</g>
<g>
</g>
<g>
</g>
<g>
</g>
<g>
</g>
<g>
</g>
<g>
</g>
<g>
</g>
<g>
</g>
</svg>
